<svg xmlns="http://www.w3.org/2000/svg" viewBox="0 0 290.53 389.75">
  <title>CAT CSS 3</title>
  <path style="fill: #9b060f;"
    d="M290.44,80.5s3.88,200.59-39.22,257.25c-43.72,57.48-106.05,51.85-106.05,51.85,0,0-67.91,5.32-107.96-53.99C-5.41,272.5,.25,80.5,.25,80.5l54,34.5s47.34-9.72,90.97-10,91,10,91,10l54.22-34.5Z" />
  <path style="fill: red;"
    d="M243.21,337.13l20.75-232.42h-11.58l-16.16,10.28s-53.79-10-90.88-10V384.42s55.66,1.99,97.87-47.29Z" />
  <polygon style="fill: #ebebeb;" points="60.79 214.57 64.05 250.9 145.34 250.9 145.34 214.57 60.79 214.57" />
  <polygon style="fill: #ebebeb;" points="145.34 141.04 145.22 141.04 54.25 141.04 57.55 177.37 145.34 177.37 145.34 141.04" />
  <polygon style="fill: #ebebeb;"
    points="145.34 346.72 145.34 308.92 145.18 308.96 104.72 298.04 102.14 269.07 82.48 269.07 65.67 269.07 70.76 326.11 145.18 346.77 145.34 346.72" />
  <path style="fill: white;" d="M68.54,0h44V18.4h-25.6v18.4h25.6v18.4h-44V0Z" />
  <path style="fill: white;" d="M121.34,0h44V16h-25.6v3.2h25.6V56h-44v-16.8h25.6v-3.2h-25.6V0Z" />
  <path style="fill: white;" d="M174.14,0h44V16h-25.6v3.2h25.6V56h-44v-16.8h25.6v-3.2h-25.6V0Z" />
  <polygon style="fill: white;"
    points="189.95 250.9 185.73 298.02 145.22 308.95 145.22 346.75 219.69 326.11 220.24 319.97 228.78 224.33 229.66 214.57 236.22 141.04 145.22 141.04 145.22 177.37 196.41 177.37 193.1 214.57 145.22 214.57 145.22 250.9 189.95 250.9" />
</svg>